# xmcd
#
# Track frame offsets:
#	150
#	14790
#	27928
#	43272
#	59469
#	75098
#	93374
#	108573
#	124278
#	142699
#	166344
#	184620
#
# Disc length: 2671 seconds
#
# Revision: 1
# Processed by: cddbd v1.5.2PL0 Copyright (c) Steve Scherf et al.
# Submitted via: audiograbber 1.83.01
#
DISCID=980a6d0c
DTITLE=JonesTM - HC200806
DYEAR=2008
DGENRE=Country
TTITLE0=Lost Trailers - Holler Back
TTITLE1=Jo Dee Messina - I'm Done
TTITLE2=George Strait - I Saw God Today
TTITLE3=Crystal Shawanda - You Can Let Go
TTITLE4=Kristina Cornell - That's The Way It Feels
TTITLE5=Katie Armiger - Make Me Believe [Radio Edit]
TTITLE6=Emily King - U and I [Album Version]
TTITLE7=Marcus Miller Feat. Corinne Bailey Rae, David Sanborn and Gregoire Maret 
TTITLE7=/ Free [Radio Edit 3 w/o Intro]
TTITLE8=Marcus Miller Feat. Corinne Bailey Rae, David Sanborn and Gregoire Maret 
TTITLE8=/ Free [Radio Edit 3 w/o Intro] 
TTITLE9=Jay Leach Feat. Kirk Whalum - Cleared For Takeoff [Album Version]
TTITLE10=Marcus Johnson - My Caddy [Radio Edit]
TTITLE11=Chris Standring - Love And Paragraphs
EXTD=
EXTT0=
EXTT1=
EXTT2=
EXTT3=
EXTT4=
EXTT5=
EXTT6=
EXTT7=
EXTT8=
EXTT9=
EXTT10=
EXTT11=
PLAYORDER=
